# xmcd
#
# Track frame offsets:
#	150
#	17252
#	28734
#	41897
#	54537
#	66719
#	80822
#	93134
#	105502
#	117172
#	132262
#	144959
#	157864
#	176284
#	191449
#	200384
#	214972
#	231444
#	243152
#	261472
#
# Disc length: 3648 seconds
#
# Revision: 0
# Processed by: cddbd v1.5.1PL0 Copyright (c) Steve Scherf et al.
# Submitted via: EasyCDDAExtractor 8.1.4.1
#
DISCID=160e3e14
DTITLE=Various Artist - Meio Século de Música Sertaneja Vol.5
DYEAR=1900
DGENRE=Sertanejo
TTITLE0=Zé do Rancho and Marizinha - Devocao (Danca de Sao Goncalo)
TTITLE1=Campanha and Cuiabano - Rei da Estrada
TTITLE2=Sulino and Marrueiro - Mandamentos do Chofer
TTITLE3=Duo Ciriema - Os Homens Nao Devem Chorar
TTITLE4=Belmonte and Amarai - Saudade de Goias
TTITLE5=Carmen Silva - Orgulhoso
TTITLE6=Teodoro and Sampaio - Guarda-Roupa Maldito
TTITLE7=Irmãs Galvão - Triste Lembrança
TTITLE8=Trio da Vitoria - Expresso Boiadeiro
TTITLE9=Abel and Caim - A Garota da Loteca
TTITLE10=Mário Zan - Sanfoneiro Folgado
TTITLE11=Sérgio Reis - Voce Vai Gostar (La do Pe da Serra)
TTITLE12=Renato Teixeira - Romaria
TTITLE13=Chrystian and Ralf - O Ipe e o Prisioneiro (Ipe Florido)
TTITLE14=Mazzaroppi - Cai Sereno (Na Rama da Mandioquinha)
TTITLE15=Raul Torres and Florêncio - Moça Boiadeira
TTITLE16=Alvarenga and Ranchinho - Horóscopo
TTITLE17=Bob Nelson - O Boi Barnabe
TTITLE18=Gian and Giovani - Festa de Rodeio
TTITLE19=Tonico and Tinoco - Despedida de Solteiro
EXTD=
EXTT0=
EXTT1=
EXTT2=
EXTT3=
EXTT4=
EXTT5=
EXTT6=
EXTT7=
EXTT8=
EXTT9=
EXTT10=
EXTT11=
EXTT12=
EXTT13=
EXTT14=
EXTT15=
EXTT16=
EXTT17=
EXTT18=
EXTT19=
PLAYORDER=
